<svg xmlns="http://www.w3.org/2000/svg" viewBox="0 0 21.553 4.6306">
  <defs>
    <filter id="a" color-interpolation-filters="sRGB">
      <feBlend in2="BackgroundImage" mode="darken"/>
    </filter>
  </defs>
  <g aria-label="Alegreme" transform="matrix(.10176 0 0 .10176 -14.803 -41.47)" style="line-height:1.25;-inkscape-font-specification:'Product Sans'" fill="#2ecc71" filter="url(#a)" font-family="Product Sans" font-size="40" font-weight="700" letter-spacing="0" word-spacing="0">
    <path d="M173.8748 411.308h6.16l10.76 28.64h-5.96l-2.36-6.84h-11.04l-2.36 6.84h-5.96zm6.84 16.84l-2.56-7.16-1.04-3.48h-.32l-1.04 3.48-2.56 7.16zM193.3888 439.948v-28.64h5.24v28.64zM221.024 435.228c-.9066 1.6-2.1332 2.8934-3.68 3.88-1.52.9867-3.3866 1.48-5.6 1.48-1.4932 0-2.88-.2533-4.16-.76-1.2532-.5333-2.3466-1.2666-3.28-2.2-.9332-.9333-1.6666-2.0266-2.2-3.28-.5066-1.28-.76-2.68-.76-4.2 0-1.4133.2534-2.7466.76-4 .5068-1.28 1.2134-2.3866 2.12-3.32.9068-.96 1.9734-1.72 3.2-2.28 1.2534-.56 2.6268-.84 4.12-.84 1.5734 0 2.9734.2667 4.2.8 1.2268.5067 2.2534 1.2267 3.08 2.16.8268.9067 1.4534 1.9867 1.88 3.24.4268 1.2534.64 2.6134.64 4.08.0148.456-.0442.9458-.08 1.36h-14.76c.1068.8.32 1.4934.64 2.08.3468.56.76 1.04 1.24 1.44.5068.3734 1.0534.6534 1.64.84.5868.16 1.1868.24 1.8.24 1.2 0 2.1868-.2666 2.96-.8.8-.56 1.4268-1.2533 1.88-2.08zm-4.76-7.6c-.0266-.3466-.1466-.7333-.36-1.16-.1866-.4266-.48-.8266-.88-1.2-.3732-.3733-.8532-.68-1.44-.92-.56-.24-1.24-.36-2.04-.36-1.12 0-2.1066.32-2.96.96-.8532.64-1.4532 1.5334-1.8 2.68zM234.2054 449.228c-1.3866 0-2.6266-.1866-3.72-.56-1.0666-.3466-2-.8133-2.8-1.4-.8-.56-1.4666-1.1866-2-1.88-.5333-.6933-.92-1.3866-1.16-2.08-1.18-3.3647 3.599-4.7265 5-2 .3734 1.04.9867 1.84 1.84 2.4.8534.5867 1.8.88 2.84.88 1.6534 0 2.96-.52 3.92-1.56.96-1.0133 1.44-2.44 1.44-4.28l.0223-1.8287-.3423.4688c-.6133.8533-1.4267 1.5333-2.44 2.04-.9867.48-2.16.72-3.52.72-1.1733 0-2.32-.24-3.44-.72-1.0933-.48-2.0667-1.16-2.92-2.04-.8533-.9067-1.5467-1.9867-2.08-3.24-.5333-1.2534-.8-2.6534-.8-4.2 0-1.5467.2667-2.9467.8-4.2.5333-1.28 1.2267-2.36 2.08-3.24.8533-.9067 1.8267-1.6 2.92-2.08 1.12-.48 2.2667-.72 3.44-.72 1.36 0 2.5333.2533 3.52.76 1.0133.48 1.8267 1.1466 2.44 2l.32.434v-2.554h5v18.2c0 1.6533-.2533 3.1333-.76 4.44-.5067 1.3333-1.2133 2.4533-2.12 3.36-.9067.9333-2 1.64-3.28 2.12-1.2533.5066-2.6533.76-4.2.76zm.2-13.8c.64 0 1.2667-.12 1.88-.36.64-.24 1.2-.5866 1.68-1.04.48-.48.8667-1.0533 1.16-1.72.2933-.6933.44-1.48.44-2.36 0-.88-.1467-1.6666-.44-2.36-.2933-.6933-.68-1.2666-1.16-1.72-.48-.48-1.04-.84-1.68-1.08-.6133-.24-1.24-.36-1.88-.36-.64 0-1.2666.12-1.88.36-.6133.24-1.16.6-1.64 1.08-.48.48-.8666 1.0667-1.16 1.76-.2933.6667-.44 1.44-.44 2.32 0 .88.1467 1.6667.44 2.36.2934.6667.68 1.24 1.16 1.72.48.4534 1.0267.8 1.64 1.04.6134.24 1.24.36 1.88.36zM249.406 420.348h4.92v3.3672l.32-.6471c.24-.48.56-.92.96-1.32.4-.4.84-.7467 1.32-1.04a7.0443 7.0443 0 0 1 1.6-.68c.5867-.16 1.16-.24 1.72-.24.6934 0 1.28.0667 1.76.2.5067.1333.9334.3066 1.28.52l-1.4 4.76c-.32-.16-.68-.28-1.08-.36-.3733-.1067-.84-.16-1.4-.16-.72 0-1.3733.1466-1.96.44-.5866.2666-1.0933.6533-1.52 1.16-.4.5066-.72 1.1066-.96 1.8-.2133.6666-.32 1.4-.32 2.2v9.6h-5.24zM283.0441 435.228c-.9066 1.6-2.1333 2.8934-3.68 3.88-1.52.9867-3.3866 1.48-5.6 1.48-1.4933 0-2.88-.2533-4.16-.76-1.2533-.5333-2.3466-1.2666-3.28-2.2-.9333-.9333-1.6666-2.0266-2.2-3.28-.5066-1.28-.76-2.68-.76-4.2 0-1.4133.2534-2.7466.76-4 .5067-1.28 1.2134-2.3866 2.12-3.32.9067-.96 1.9734-1.72 3.2-2.28 1.2534-.56 2.6267-.84 4.12-.84 1.5734 0 2.9734.2667 4.2.8 1.2267.5067 2.2534 1.2267 3.08 2.16.8267.9067 1.4534 1.9867 1.88 3.24.4267 1.2534.64 2.6134.64 4.08.0147.456-.0443.9458-.08 1.36h-14.76c.1067.8.32 1.4934.64 2.08.3467.56.76 1.04 1.24 1.44.5067.3734 1.0534.6534 1.64.84.5867.16 1.1867.24 1.8.24 1.2 0 2.1867-.2666 2.96-.8.8-.56 1.4267-1.2533 1.88-2.08zm-4.76-7.6c-.0267-.3466-.1466-.7333-.36-1.16-.1866-.4266-.48-.8266-.88-1.2-.3733-.3733-.8533-.68-1.44-.92-.56-.24-1.24-.36-2.04-.36-1.12 0-2.1066.32-2.96.96-.8533.64-1.4533 1.5334-1.8 2.68zM286.0367 420.348h4.92v3.0572l.32-.4971c.6134-.96 1.44-1.7334 2.48-2.32 1.0667-.5867 2.24-.88 3.52-.88 1.4934 0 2.7467.3466 3.76 1.04 1.0134.6933 1.7334 1.5466 2.16 2.56.6134-.9867 1.48-1.8267 2.6-2.52 1.12-.72 2.48-1.08 4.08-1.08 1.2 0 2.24.2 3.12.6.88.3733 1.6.9066 2.16 1.6.5867.6933 1.0267 1.5333 1.32 2.52.2934.96.44 2.0133.44 3.16v12.36h-5.24v-11.4c0-2.6667-1.0933-4-3.28-4-.6933 0-1.3066.16-1.84.48-.5333.2933-.9866.7066-1.36 1.24-.3466.5066-.6266 1.12-.84 1.84-.1866.72-.28 1.4933-.28 2.32v9.52h-5.24v-11.4c0-2.6667-1.1466-4-3.44-4-.6666 0-1.2533.16-1.76.48-.5066.2933-.9333.7066-1.28 1.24-.3466.5066-.6133 1.12-.8 1.84-.1866.72-.28 1.4933-.28 2.32v9.52h-5.24zM337.2936 438.1723c-.4167.3592-2.1014 2.3986-7.3566 2.5095-5.5973.1182-10.3635-4.7902-10.3714-9.701-.224-14.5091 17.0276-14.373 20.0463-3.3631 0 0-12.4028 5.1771-14.522 5.7384 0 0 1.4256 3.2733 5.0546 3.2013 2.5575-.1147 3.7674-1.0006 4.2028-1.4277 1.0803-1.0553 2.2118-.9704 3.127-.2566.8993.7014 1.198 2.1108-.1807 3.2992zm-3.3474-12.0895c-1.1077-1.8807-3.7304-2.9545-6.338-1.7704-2.6077 1.184-3.679 3.481-3.3116 5.6399z" style="-inkscape-font-specification:'Product Sans Bold'"/>
  </g>
</svg>
