<?xml version="1.0" standalone="no"?><!-- Generator: Gravit.io --><svg xmlns="http://www.w3.org/2000/svg" xmlns:xlink="http://www.w3.org/1999/xlink" style="isolation:isolate" viewBox="197.403 564.331 51.688 45.879" width="51.688" height="45.879"><g><path d=" M 207.376 570.118 L 207.376 570.118 Q 210.952 565.238 217.285 565.017 L 217.285 565.017 L 217.285 565.017 Q 223.617 564.796 226.442 569.38 L 226.442 569.38 L 226.442 569.38 Q 230.093 564.57 236.641 564.341 L 236.641 564.341 L 236.641 564.341 Q 247.722 563.954 248.202 577.698 L 248.202 577.698 L 249.091 603.17 L 238.01 603.557 L 237.103 577.581 L 237.103 577.581 Q 236.94 572.904 233.126 573.037 L 233.126 573.037 L 233.126 573.037 Q 230.392 573.133 228.81 575.277 L 228.81 575.277 L 229.807 603.844 L 218.798 604.228 L 217.891 578.252 L 217.891 578.252 Q 217.727 573.575 213.842 573.711 L 213.842 573.711 L 213.842 573.711 Q 211.251 573.801 209.525 575.951 L 209.525 575.951 L 210.523 604.517 L 199.514 604.902 L 198.569 577.846 L 197.403 567.152 L 205.928 565.774 L 207.089 570.128 L 207.376 570.118 Z " fill="rgb(0,0,0)"/><path d=" M 225.52 608.5 Q 222.283 608.649 217.432 608.531 C 216.724 608.514 216.625 608.823 217.211 609.221 Q 219.094 610.5 225.52 610.125 Q 231.947 609.75 233.425 608.202 C 233.894 607.711 233.733 607.414 233.066 607.54 Q 228.757 608.351 225.52 608.5 Z " fill="rgb(0,0,0)"/></g></svg>