<?xml version="1.0" encoding="UTF-8" standalone="no"?>
<!-- Created with Inkscape (http://www.inkscape.org/) -->

<svg
   xmlns:dc="http://purl.org/dc/elements/1.1/"
   xmlns:cc="http://creativecommons.org/ns#"
   xmlns:rdf="http://www.w3.org/1999/02/22-rdf-syntax-ns#"
   xmlns:svg="http://www.w3.org/2000/svg"
   xmlns="http://www.w3.org/2000/svg"
   xmlns:sodipodi="http://sodipodi.sourceforge.net/DTD/sodipodi-0.dtd"
   xmlns:inkscape="http://www.inkscape.org/namespaces/inkscape"
   width="17.158062mm"
   height="3.85885mm"
   viewBox="0 0 17.158062 3.85885"
   version="1.1"
   id="svg8"
   inkscape:version="0.92.4 (unknown)"
   sodipodi:docname="logo.svg">
  <defs
     id="defs2" />
  <sodipodi:namedview
     id="base"
     pagecolor="#ffffff"
     bordercolor="#666666"
     borderopacity="1.0"
     inkscape:pageopacity="0.0"
     inkscape:pageshadow="2"
     inkscape:zoom="7.9195959"
     inkscape:cx="34.498478"
     inkscape:cy="-5.8141438"
     inkscape:document-units="mm"
     inkscape:current-layer="layer1"
     showgrid="false"
     fit-margin-top="0"
     fit-margin-left="0"
     fit-margin-right="0"
     fit-margin-bottom="0"
     inkscape:window-width="1385"
     inkscape:window-height="876"
     inkscape:window-x="55"
     inkscape:window-y="24"
     inkscape:window-maximized="1" />
  <metadata
     id="metadata5">
    <rdf:RDF>
      <cc:Work
         rdf:about="">
        <dc:format>image/svg+xml</dc:format>
        <dc:type
           rdf:resource="http://purl.org/dc/dcmitype/StillImage" />
        <dc:title></dc:title>
      </cc:Work>
    </rdf:RDF>
  </metadata>
  <g
     inkscape:label="Layer 1"
     inkscape:groupmode="layer"
     id="layer1"
     transform="translate(-109.34954,-118.93367)">
    <path
       d="m 111.62753,121.84816 v -2.91449 h 0.53323 v 2.91449 z"
       style="font-style:normal;font-variant:normal;font-weight:bold;font-stretch:normal;font-size:40px;line-height:1.25;font-family:'Product Sans';-inkscape-font-specification:'Product Sans Bold';letter-spacing:0px;word-spacing:0px;display:inline;fill:#2ecc71;fill-opacity:1;stroke:none;stroke-width:0.10176282"
       id="path5310"
       inkscape:connector-curvature="0" />
    <path
       d="m 114.43977,121.36784 c -0.0923,0.16282 -0.21709,0.29443 -0.37449,0.39484 -0.15468,0.1004 -0.34463,0.15061 -0.56987,0.15061 -0.15196,0 -0.29307,-0.0258 -0.42333,-0.0773 -0.12754,-0.0543 -0.2388,-0.1289 -0.33378,-0.22388 -0.095,-0.095 -0.16961,-0.20624 -0.22388,-0.33378 -0.0516,-0.13026 -0.0773,-0.27273 -0.0773,-0.42741 0,-0.14382 0.0258,-0.27951 0.0773,-0.40705 0.0516,-0.13025 0.12347,-0.24287 0.21574,-0.33785 0.0923,-0.0977 0.20081,-0.17503 0.32564,-0.23202 0.12754,-0.057 0.26729,-0.0855 0.41926,-0.0855 0.16011,0 0.30257,0.0271 0.4274,0.0814 0.12483,0.0516 0.22931,0.12483 0.31343,0.21981 0.0841,0.0923 0.1479,0.20217 0.19132,0.32971 0.0434,0.12754 0.0651,0.26594 0.0651,0.41519 0.002,0.0464 -0.005,0.0962 -0.008,0.1384 h -1.50203 c 0.0109,0.0814 0.0326,0.15196 0.0651,0.21167 0.0353,0.057 0.0773,0.10583 0.12619,0.14653 0.0516,0.038 0.10719,0.0665 0.16689,0.0855 0.0597,0.0163 0.12076,0.0244 0.18317,0.0244 0.12212,0 0.22252,-0.0271 0.30122,-0.0814 0.0698,-0.0488 0.14667,-0.13964 0.17045,-0.17643 0.0238,-0.0368 0.059,-0.0164 0.059,-0.0164 z m -0.48439,-0.7734 c -0.003,-0.0353 -0.0149,-0.0746 -0.0366,-0.11804 -0.019,-0.0434 -0.0489,-0.0841 -0.0896,-0.12212 -0.038,-0.038 -0.0868,-0.0692 -0.14653,-0.0936 -0.057,-0.0244 -0.12619,-0.0366 -0.2076,-0.0366 -0.11397,0 -0.21438,0.0326 -0.30122,0.0977 -0.0868,0.0651 -0.14789,0.15603 -0.18317,0.27272 z"
       style="font-style:normal;font-variant:normal;font-weight:bold;font-stretch:normal;font-size:40px;line-height:1.25;font-family:'Product Sans';-inkscape-font-specification:'Product Sans Bold';letter-spacing:0px;word-spacing:0px;display:inline;fill:#2ecc71;fill-opacity:1;stroke:none;stroke-width:0.10176282"
       id="path5312"
       inkscape:connector-curvature="0"
       sodipodi:nodetypes="ccscscscccsccsccccccsczccccccsscc" />
    <path
       d="m 115.78114,122.79252 c -0.14111,0 -0.2673,-0.019 -0.37856,-0.057 -0.10854,-0.0353 -0.20352,-0.0828 -0.28493,-0.14247 -0.0814,-0.057 -0.14926,-0.12076 -0.20353,-0.19131 -0.0543,-0.0706 -0.0936,-0.14111 -0.11804,-0.21167 -0.12008,-0.3424 0.36624,-0.48098 0.50881,-0.20352 0.038,0.10583 0.10041,0.18724 0.18724,0.24423 0.0868,0.0597 0.18318,0.0896 0.28901,0.0896 0.16825,0 0.30122,-0.0529 0.39891,-0.15875 0.0977,-0.10312 0.14654,-0.2483 0.14654,-0.43555 l 0.002,-0.1861 -0.0348,0.0477 c -0.0624,0.0868 -0.14518,0.15603 -0.2483,0.20759 -0.1004,0.0488 -0.2198,0.0733 -0.3582,0.0733 -0.1194,0 -0.23609,-0.0244 -0.35007,-0.0733 -0.11126,-0.0488 -0.21031,-0.11804 -0.29715,-0.20759 -0.0868,-0.0923 -0.15739,-0.20217 -0.21167,-0.32972 -0.0543,-0.12754 -0.0814,-0.27001 -0.0814,-0.4274 0,-0.15739 0.0271,-0.29986 0.0814,-0.4274 0.0543,-0.13026 0.12483,-0.24016 0.21167,-0.32971 0.0868,-0.0923 0.18589,-0.16282 0.29715,-0.21167 0.11397,-0.0489 0.23066,-0.0733 0.35006,-0.0733 0.1384,0 0.2578,0.0258 0.35821,0.0773 0.10312,0.0489 0.18588,0.11669 0.2483,0.20353 l 0.0326,0.0442 v -0.25991 h 0.50882 v 1.85208 c 0,0.16825 -0.0258,0.31886 -0.0773,0.45183 -0.0516,0.13568 -0.12347,0.24966 -0.21574,0.34192 -0.0923,0.095 -0.20353,0.16689 -0.33378,0.21574 -0.12754,0.0516 -0.27001,0.0773 -0.42741,0.0773 z m 0.0204,-1.40433 c 0.0651,0 0.1289,-0.0122 0.19132,-0.0366 0.0651,-0.0244 0.12211,-0.0597 0.17096,-0.10584 0.0488,-0.0488 0.0882,-0.10719 0.11804,-0.17503 0.0299,-0.0705 0.0448,-0.15061 0.0448,-0.24016 0,-0.0896 -0.0149,-0.1696 -0.0448,-0.24016 -0.0298,-0.0705 -0.0692,-0.1289 -0.11804,-0.17503 -0.0489,-0.0489 -0.10584,-0.0855 -0.17096,-0.10991 -0.0624,-0.0244 -0.12619,-0.0366 -0.19132,-0.0366 -0.0651,0 -0.1289,0.0122 -0.19131,0.0366 -0.0624,0.0244 -0.11805,0.061 -0.16689,0.1099 -0.0489,0.0489 -0.0882,0.10855 -0.11805,0.1791 -0.0298,0.0678 -0.0448,0.14654 -0.0448,0.23609 0,0.0896 0.0149,0.16961 0.0448,0.24016 0.0299,0.0678 0.0692,0.12619 0.11805,0.17503 0.0488,0.0461 0.10447,0.0814 0.16689,0.10584 0.0624,0.0244 0.12618,0.0366 0.19131,0.0366 z"
       style="font-style:normal;font-variant:normal;font-weight:bold;font-stretch:normal;font-size:40px;line-height:1.25;font-family:'Product Sans';-inkscape-font-specification:'Product Sans Bold';letter-spacing:0px;word-spacing:0px;display:inline;fill:#2ecc71;fill-opacity:1;stroke:none;stroke-width:0.10176282"
       id="path5314"
       inkscape:connector-curvature="0"
       sodipodi:nodetypes="sccscccscscccsccsscccscccccscccsssccssccssscsccsss" />
    <path
       d="m 117.328,119.85361 h 0.50067 v 0.34265 l 0.0326,-0.0659 c 0.0244,-0.0488 0.057,-0.0936 0.0977,-0.13432 0.0407,-0.0407 0.0855,-0.076 0.13432,-0.10584 0.0516,-0.0299 0.10584,-0.0529 0.16282,-0.0692 0.0597,-0.0163 0.11805,-0.0244 0.17503,-0.0244 0.0706,0 0.13026,0.007 0.17911,0.0203 0.0516,0.0136 0.095,0.0312 0.13025,0.0529 l -0.14246,0.48439 c -0.0326,-0.0163 -0.0692,-0.0285 -0.10991,-0.0366 -0.038,-0.0109 -0.0855,-0.0163 -0.14247,-0.0163 -0.0733,0 -0.13975,0.0149 -0.19945,0.0448 -0.0597,0.0271 -0.11126,0.0665 -0.15468,0.11804 -0.0407,0.0516 -0.0733,0.11262 -0.0977,0.18318 -0.0217,0.0678 -0.0326,0.14247 -0.0326,0.22388 v 0.97692 H 117.328 Z"
       style="font-style:normal;font-variant:normal;font-weight:bold;font-stretch:normal;font-size:40px;line-height:1.25;font-family:'Product Sans';-inkscape-font-specification:'Product Sans Bold';letter-spacing:0px;word-spacing:0px;display:inline;fill:#2ecc71;fill-opacity:1;stroke:none;stroke-width:0.10176282"
       id="path5316"
       inkscape:connector-curvature="0"
       sodipodi:nodetypes="ccccsccsccccscccsccc" />
    <path
       d="m 121.05564,119.85361 h 0.50067 v 0.31111 l 0.0326,-0.0506 c 0.0624,-0.0977 0.14654,-0.17639 0.25238,-0.23609 0.10854,-0.0597 0.22794,-0.0895 0.3582,-0.0895 0.15197,0 0.27951,0.0353 0.38263,0.10583 0.10312,0.0706 0.17639,0.1574 0.21981,0.26052 0.0624,-0.10041 0.15061,-0.18589 0.26458,-0.25645 0.11397,-0.0733 0.25237,-0.1099 0.41519,-0.1099 0.12212,0 0.22795,0.0203 0.3175,0.0611 0.0896,0.038 0.16282,0.0923 0.21981,0.16282 0.0597,0.0705 0.10448,0.15603 0.13433,0.25644 0.0298,0.0977 0.0448,0.20488 0.0448,0.32157 v 1.25779 h -0.53323 v -1.1601 c 0,-0.27136 -0.11126,-0.40705 -0.33378,-0.40705 -0.0705,0 -0.13297,0.0163 -0.18725,0.0489 -0.0543,0.0299 -0.1004,0.0719 -0.13839,0.12618 -0.0353,0.0516 -0.0638,0.11398 -0.0855,0.18725 -0.019,0.0733 -0.0285,0.15196 -0.0285,0.23609 v 0.96878 h -0.53325 v -1.1601 c 0,-0.27136 -0.11668,-0.40705 -0.35006,-0.40705 -0.0678,0 -0.12754,0.0163 -0.1791,0.0489 -0.0516,0.0299 -0.095,0.0719 -0.13026,0.12618 -0.0353,0.0516 -0.0624,0.11398 -0.0814,0.18725 -0.019,0.0733 -0.0285,0.15196 -0.0285,0.23609 v 0.96878 h -0.53324 z"
       style="font-style:normal;font-variant:normal;font-weight:bold;font-stretch:normal;font-size:40px;line-height:1.25;font-family:'Product Sans';-inkscape-font-specification:'Product Sans Bold';letter-spacing:0px;word-spacing:0px;display:inline;fill:#2ecc71;fill-opacity:1;stroke:none;stroke-width:0.10176282"
       id="path5320"
       inkscape:connector-curvature="0"
       sodipodi:nodetypes="cccccssccscccsccsscccsccssccssccc" />
    <path
       sodipodi:nodetypes="ccscscscccsccsccccccsczccccccsscc"
       inkscape:connector-curvature="0"
       id="path5377"
       style="font-style:normal;font-variant:normal;font-weight:bold;font-stretch:normal;font-size:40px;line-height:1.25;font-family:'Product Sans';-inkscape-font-specification:'Product Sans Bold';letter-spacing:0px;word-spacing:0px;display:inline;fill:#2ecc71;fill-opacity:1;stroke:none;stroke-width:0.10176282"
       d="m 120.75111,121.36784 c -0.0923,0.16282 -0.2171,0.29443 -0.37449,0.39484 -0.15468,0.1004 -0.34464,0.15061 -0.56987,0.15061 -0.15197,0 -0.29308,-0.0258 -0.42334,-0.0773 -0.12754,-0.0543 -0.2388,-0.1289 -0.33378,-0.22388 -0.095,-0.095 -0.1696,-0.20624 -0.22388,-0.33378 -0.0516,-0.13026 -0.0773,-0.27273 -0.0773,-0.42741 0,-0.14382 0.0258,-0.27951 0.0773,-0.40705 0.0516,-0.13025 0.12348,-0.24287 0.21574,-0.33785 0.0923,-0.0977 0.20081,-0.17503 0.32564,-0.23202 0.12754,-0.057 0.2673,-0.0855 0.41927,-0.0855 0.1601,0 0.30257,0.0271 0.4274,0.0814 0.12483,0.0516 0.2293,0.12483 0.31343,0.21981 0.0841,0.0923 0.14789,0.20217 0.19131,0.32971 0.0434,0.12754 0.0651,0.26594 0.0651,0.41519 10e-4,0.0464 -0.005,0.0962 -0.008,0.1384 h -1.50206 c 0.0109,0.0814 0.0326,0.15196 0.0651,0.21167 0.0353,0.057 0.0773,0.10583 0.12618,0.14653 0.0516,0.038 0.10719,0.0665 0.1669,0.0855 0.0597,0.0163 0.12075,0.0244 0.18317,0.0244 0.12211,0 0.22252,-0.0271 0.30122,-0.0814 0.0698,-0.0488 0.14667,-0.13964 0.17045,-0.17643 0.0238,-0.0368 0.059,-0.0164 0.059,-0.0164 z m -0.48439,-0.7734 c -0.003,-0.0353 -0.0149,-0.0746 -0.0366,-0.11804 -0.019,-0.0434 -0.0489,-0.0841 -0.0896,-0.12212 -0.038,-0.038 -0.0868,-0.0692 -0.14654,-0.0936 -0.057,-0.0244 -0.12619,-0.0366 -0.2076,-0.0366 -0.11397,0 -0.21438,0.0326 -0.30122,0.0977 -0.0868,0.0651 -0.14789,0.15603 -0.18317,0.27272 z" />
    <path
       style="font-style:normal;font-variant:normal;font-weight:bold;font-stretch:normal;font-size:40px;line-height:1.25;font-family:'Product Sans';-inkscape-font-specification:'Product Sans Bold';letter-spacing:0px;word-spacing:0px;display:inline;fill:#2ecc71;fill-opacity:1;stroke:none;stroke-width:0.09958532"
       d="m 126.27168,121.66745 c -0.0424,0.0365 -0.21383,0.2441 -0.74862,0.25538 -0.5696,0.012 -1.05462,-0.48747 -1.05543,-0.9872 -0.0228,-1.4765 1.73278,-1.46264 2.03997,-0.34225 0,0 -1.26215,0.52684 -1.4778,0.58396 0,0 0.14507,0.33311 0.51437,0.32578 0.26026,-0.0117 0.38339,-0.10183 0.42769,-0.14529 0.10994,-0.10739 0.22508,-0.0988 0.31821,-0.0261 0.0915,0.0714 0.12191,0.2148 -0.0184,0.33573 z m -0.34063,-1.23026 c -0.11273,-0.19138 -0.37962,-0.30065 -0.64499,-0.18016 -0.26536,0.12049 -0.37438,0.35423 -0.33699,0.57393 z"
       id="path5322"
       inkscape:connector-curvature="0"
       sodipodi:nodetypes="ssccsccssczcc" />
    <g
       transform="matrix(0.10176282,0,0,0.10176282,91.947737,77.077806)"
       aria-label="a"
       style="font-style:normal;font-variant:normal;font-weight:normal;font-stretch:normal;font-size:39.74346924px;line-height:1.25;font-family:cabin;-inkscape-font-specification:cabin;letter-spacing:0px;word-spacing:0px;display:inline;fill:#2ecc71;fill-opacity:1;stroke:none;stroke-width:0.99358672"
       id="text5326">
      <path
         d="m 184.11888,437.91979 c 0.0203,-0.71094 -0.0132,-0.37094 -0.31795,0 -0.3047,0.37094 -1.35128,1.37778 -2.22563,1.90769 -0.84786,0.52991 -1.94743,0.79487 -3.29871,0.79487 -1.00683,0 -1.96068,-0.17222 -2.86153,-0.51667 -0.87436,-0.31795 -1.64273,-0.76837 -2.30512,-1.35128 -0.66239,-0.5829 -1.17906,-1.28503 -1.55,-2.1064 -0.37094,-0.82137 -0.55641,-1.72222 -0.55641,-2.70256 0,-1.00683 0.19872,-1.90768 0.59616,-2.70255 0.39743,-0.82137 0.95384,-1.5235 1.66922,-2.10641 0.71539,-0.5829 1.55,-1.02008 2.50384,-1.31153 0.98034,-0.31795 2.04017,-0.47692 3.17948,-0.47692 1.27179,0 2.31836,0.10598 3.13973,0.31794 0.82137,0.18547 1.49701,0.38419 2.02692,0.59616 v -0.59616 c 0,-1.03333 -0.41068,-1.88119 -1.23205,-2.54358 -0.82137,-0.68889 -1.84145,-1.03333 -3.06025,-1.03333 -1.8017,0 -3.3252,0.75513 -4.5705,2.26538 l -3.77562,-2.58333 c 2.06666,-2.59657 4.88844,-3.89486 8.46535,-3.89486 3.02051,0 5.32563,0.71538 6.91537,2.14615 1.58974,1.40427 2.38461,3.49743 2.38461,6.27947 v 11.68458 h -5.12691 z m -1.90769,-6.51793 c -0.63589,-0.18547 -1.33803,-0.2782 -2.1064,-0.2782 -1.24529,0 -2.21239,0.2782 -2.90128,0.83461 -0.66239,0.52991 -0.99358,1.1923 -0.99358,1.98717 0,0.79487 0.31795,1.43077 0.95384,1.90769 0.66239,0.47692 1.41752,0.71538 2.26538,0.71538 0.68889,0 1.32478,-0.11923 1.90769,-0.35769 2.67804,-1.48843 3.99781,-3.78451 0.87435,-4.80896 z"
         style="font-style:normal;font-variant:normal;font-weight:bold;font-stretch:normal;font-family:'Product Sans';-inkscape-font-specification:'Product Sans Bold';fill:#2ecc71;fill-opacity:1;stroke-width:0.99358672"
         id="path5371"
         inkscape:connector-curvature="0"
         sodipodi:nodetypes="czcsccsscccsccscsccscsccccscscscc" />
    </g>
  </g>
</svg>
