<svg width="137" height="31" viewBox="0 0 137 31" fill="none" xmlns="http://www.w3.org/2000/svg">
<mask id="mask0" mask-type="alpha" maskUnits="userSpaceOnUse" x="0" y="0" width="137" height="31">
<path d="M134.187 21.5672C133.853 21.8551 132.5 23.4929 128.279 23.5819C123.783 23.6766 119.955 19.7362 119.949 15.7938C119.769 4.14545 133.625 4.25481 136.049 13.0937C136.049 13.0937 126.088 17.25 124.386 17.7006C124.386 17.7006 125.531 20.3286 128.445 20.2708C130.499 20.1785 131.471 19.4674 131.821 19.1245C132.689 18.2773 133.597 18.3451 134.332 18.9187C135.055 19.482 135.295 20.6132 134.187 21.5672L134.187 21.5672ZM131.499 11.8615C130.609 10.3516 128.503 9.4896 126.408 10.4402C124.314 11.3907 123.454 13.2348 123.749 14.968L131.499 11.8615Z" fill="#2ECC71"/>
<path d="M93.0202 7.25756H96.9717V9.71196L97.229 9.31278C97.7215 8.54201 98.3856 7.9212 99.2209 7.45022C100.078 6.97924 101.02 6.74414 102.048 6.74414C103.247 6.74414 104.254 7.02267 105.068 7.57909C105.882 8.13606 106.46 8.82078 106.803 9.63431C107.295 8.84216 107.991 8.16783 108.891 7.61117C109.79 7.03289 110.883 6.74414 112.168 6.74414C113.132 6.74414 113.967 6.90432 114.674 7.2262C115.381 7.52598 115.959 7.95436 116.408 8.5107C116.88 9.06688 117.233 9.74163 117.469 10.5338C117.704 11.3046 117.822 12.1501 117.822 13.0707V22.9936H113.614V13.8414C113.614 11.7006 112.736 10.6301 110.979 10.6301C110.423 10.6301 109.93 10.7587 109.502 11.0159C109.073 11.2518 108.709 11.5831 108.409 12.0113C108.131 12.4184 107.906 12.9106 107.734 13.4886C107.584 14.0669 107.509 14.6874 107.509 15.3511V22.9939H103.301V13.8418C103.301 11.701 102.38 10.6305 100.538 10.6305C100.003 10.6305 99.5314 10.7591 99.1245 11.0163C98.7173 11.2521 98.3748 11.5835 98.0965 12.0117C97.8179 12.4188 97.6039 12.9109 97.454 13.489C97.304 14.0672 97.2291 14.6878 97.2291 15.3515V22.9944H93.0205L93.0202 7.25756Z" fill="#2ECC71"/>
<path d="M90.6167 19.2036C89.8882 20.4881 88.9032 21.5263 87.661 22.3185C86.4402 23.1106 84.941 23.5067 83.1634 23.5067C81.964 23.5067 80.8503 23.3031 79.8222 22.8969C78.8156 22.4685 77.9375 21.8799 77.1879 21.1306C76.4381 20.3811 75.8493 19.5036 75.4209 18.4974C75.0137 17.4697 74.8109 16.3458 74.8109 15.1255C74.8109 13.9909 75.0145 12.9204 75.4209 11.9142C75.8282 10.8867 76.3955 9.99817 77.1236 9.24886C77.8521 8.47809 78.7085 7.86804 79.6937 7.41844C80.7003 6.96876 81.8034 6.7439 83.0028 6.7439C84.2664 6.7439 85.3908 6.95774 86.376 7.38612C87.3612 7.7932 88.1857 8.37086 88.8497 9.12017C89.5135 9.84834 90.0169 10.7151 90.3596 11.7213C90.7021 12.7275 90.8734 13.8194 90.8734 14.9968C90.8813 15.3629 90.834 15.7557 90.8103 16.0887H78.9554C79.0414 16.7308 79.2127 17.2875 79.4692 17.7585C79.7478 18.2082 80.0793 18.5935 80.4651 18.9145C80.8723 19.2143 81.311 19.4392 81.7823 19.5891C82.2535 19.7177 82.7353 19.7816 83.228 19.7816C84.1917 19.7816 84.9842 19.5678 85.6053 19.1394C86.1562 18.7544 86.7629 18.0378 86.9506 17.7475C87.1384 17.4572 87.4162 17.6181 87.4162 17.6181L90.6167 19.2036ZM86.7937 13.1021C86.77 12.8236 86.6761 12.5136 86.5048 12.1709C86.3548 11.8285 86.1189 11.5074 85.7976 11.2074C85.4977 10.9076 85.1126 10.6615 84.6411 10.469C84.1912 10.2765 83.6451 10.1803 83.0026 10.1803C82.1031 10.1803 81.3107 10.4374 80.6253 10.951C79.9402 11.4646 79.458 12.182 79.1796 13.1025L86.7937 13.1021Z" fill="#2ECC71"/>
<path d="M63.5999 7.2576H67.5513V9.96082L67.8086 9.44096C68.0012 9.05597 68.2585 8.70252 68.5797 8.38127C68.9009 8.06018 69.2545 7.78168 69.6398 7.54626C70.0471 7.31038 70.4752 7.12894 70.9249 7.00035C71.3961 6.87175 71.8566 6.80786 72.3063 6.80786C72.8635 6.80786 73.3344 6.8631 73.7199 6.96803C74.1272 7.07532 74.4697 7.21412 74.7479 7.38532L73.6235 11.2067C73.3662 11.0781 73.0774 10.9819 72.7561 10.918C72.4562 10.832 72.0813 10.7894 71.6316 10.7894C71.0531 10.7894 70.5287 10.907 70.0575 11.1429C69.5863 11.3567 69.1794 11.6675 68.8367 12.0741C68.5155 12.4811 68.2582 12.9626 68.0656 13.5192C67.8943 14.0541 67.8083 14.6432 67.8083 15.2855V22.9925H63.5999V7.2576Z" fill="#2ECC71"/>
<path d="M51.3914 30.443C50.2777 30.443 49.2817 30.2931 48.4036 29.9934C47.547 29.7149 46.7974 29.3401 46.1548 28.8694C45.5124 28.4197 44.9768 27.9167 44.5485 27.3601C44.1199 26.8032 43.8097 26.2469 43.6169 25.6902C42.6691 22.989 46.5074 21.8957 47.6326 24.0846C47.9325 24.9195 48.425 25.5618 49.1103 26.0114C49.7954 26.4824 50.5561 26.7183 51.3914 26.7183C52.7193 26.7183 53.7687 26.3009 54.5398 25.4659C55.3109 24.6523 55.6963 23.507 55.6963 22.0298L55.7121 20.5616L55.4374 20.9379C54.945 21.6226 54.2916 22.1689 53.4777 22.5756C52.6853 22.9606 51.7429 23.1539 50.6506 23.1539C49.7083 23.1539 48.7873 22.9614 47.8877 22.5756C47.0096 22.1906 46.2279 21.6443 45.5425 20.9379C44.8574 20.2097 44.3003 19.3429 43.8719 18.3367C43.4434 17.3305 43.2295 16.2065 43.2295 14.9649C43.2295 13.7232 43.4434 12.5992 43.8719 11.593C44.3005 10.5654 44.8571 9.69838 45.5425 8.99191C46.2276 8.26374 47.0096 7.7074 47.8877 7.32201C48.7872 6.93623 49.7082 6.74377 50.6506 6.74377C51.7429 6.74377 52.6852 6.94732 53.4777 7.35361C54.2916 7.73939 54.9448 8.27419 55.4374 8.95928L55.6947 9.30796V7.25749H59.7106V21.8688C59.7106 23.1962 59.5069 24.3843 59.1005 25.4334C58.6932 26.5037 58.126 27.4029 57.3977 28.1308C56.6693 28.8803 55.7914 29.4474 54.7634 29.8328C53.7568 30.2399 52.6324 30.4427 51.3901 30.4427L51.3914 30.443ZM51.5523 19.3641C52.0661 19.3641 52.5697 19.2679 53.0623 19.0754C53.5761 18.8829 54.0261 18.6044 54.4116 18.2404C54.7968 17.8554 55.1078 17.3947 55.3433 16.8595C55.5792 16.3033 55.6968 15.6713 55.6968 14.9649C55.6968 14.258 55.5792 13.6269 55.3433 13.0702C55.1081 12.514 54.7971 12.0533 54.4116 11.6894C54.0257 11.3036 53.5763 11.0148 53.0623 10.8223C52.5699 10.6298 52.0664 10.5335 51.5523 10.5335C51.0385 10.5335 50.535 10.6298 50.0425 10.8223C49.55 11.0148 49.1107 11.3035 48.7253 11.6893C48.3393 12.0751 48.0292 12.5457 47.7936 13.1022C47.5584 13.6371 47.44 14.2583 47.44 14.9648C47.44 15.6717 47.5576 16.3029 47.7936 16.8594C48.0296 17.3943 48.3397 17.855 48.7253 18.2403C49.1104 18.604 49.5498 18.8824 50.0425 19.0752C50.5349 19.2677 51.0383 19.364 51.5523 19.364V19.3641Z" fill="#2ECC71"/>
<path d="M40.8048 19.2036C40.0764 20.4881 39.0914 21.5263 37.8492 22.3185C36.6284 23.1106 35.1292 23.5067 33.3515 23.5067C32.1522 23.5067 31.0385 23.3031 30.0104 22.8969C29.0038 22.4685 28.1257 21.8799 27.3761 21.1306C26.6263 20.3811 26.0374 19.5036 25.6091 18.4974C25.2019 17.4697 24.999 16.3458 24.999 15.1255C24.999 13.9909 25.2027 12.9204 25.6091 11.9142C26.0164 10.8867 26.5836 9.99817 27.3119 9.24886C28.0403 8.47809 28.8967 7.86804 29.8819 7.41844C30.8885 6.96876 31.9915 6.7439 33.1909 6.7439C34.4546 6.7439 35.5789 6.95774 36.5641 7.38612C37.5493 7.7932 38.3739 8.37086 39.0379 9.12017C39.7016 9.84834 40.2052 10.7151 40.5478 11.7213C40.8904 12.7275 41.0617 13.8194 41.0617 14.9968C41.0774 15.3629 41.0222 15.7557 40.9985 16.0887H29.1438C29.2299 16.7308 29.4011 17.2875 29.6576 17.7585C29.9362 18.2082 30.2677 18.5935 30.6536 18.9145C31.0608 19.2143 31.4995 19.4392 31.9707 19.5891C32.4419 19.7177 32.9238 19.7816 33.4164 19.7816C34.3802 19.7816 35.1726 19.5678 35.7937 19.1394C36.3446 18.7544 36.9514 18.0378 37.139 17.7475C37.3269 17.4572 37.6047 17.6181 37.6047 17.6181L40.8048 19.2036ZM36.9818 13.1021C36.9581 12.8236 36.8642 12.5136 36.6929 12.1709C36.543 11.8285 36.307 11.5074 35.9858 11.2074C35.6858 10.9076 35.3007 10.6615 34.8293 10.469C34.3794 10.2765 33.8334 10.1803 33.1908 10.1803C32.2913 10.1803 31.4988 10.4374 30.8135 10.951C30.1284 11.4646 29.6463 12.182 29.3678 13.1025L36.9818 13.1021Z" fill="#2ECC71"/>
<path d="M18.6095 22.9928V0H22.8179V22.9928H18.6095Z" fill="#2ECC71"/>
<path d="M11.1641 21.3645C11.1804 20.7937 11.1535 21.0667 10.9087 21.3645C10.664 21.6623 9.82345 22.4706 9.12121 22.896C8.44025 23.3215 7.55712 23.5342 6.47184 23.5342C5.6632 23.5342 4.8971 23.3959 4.17357 23.1194C3.47133 22.8641 2.85421 22.5025 2.32221 22.0345C1.79021 21.5666 1.37524 21.0029 1.07732 20.3435C0.779395 19.6841 0.630432 18.9608 0.630432 18.1738C0.630432 17.3655 0.790036 16.6422 1.10924 16.0041C1.42844 15.3447 1.87532 14.781 2.44988 14.313C3.02445 13.845 3.69478 13.4941 4.46086 13.2601C5.24823 13.0048 6.09943 12.8772 7.01447 12.8772C8.03592 12.8772 8.87648 12.9623 9.53617 13.1325C10.1959 13.2814 10.7385 13.4409 11.1641 13.6111V13.1325C11.1641 12.3029 10.8343 11.6222 10.1746 11.0904C9.51488 10.5373 8.6956 10.2608 7.71672 10.2608C6.26967 10.2608 5.04606 10.867 4.04589 12.0795L1.01348 10.0056C2.67333 7.92097 4.93967 6.87866 7.81248 6.87866C10.2384 6.87866 12.0898 7.45299 13.3666 8.60165C14.6434 9.72903 15.2818 11.4095 15.2818 13.643V23.0237H11.1641V21.3645ZM9.63193 16.1317C9.12121 15.9828 8.55729 15.9084 7.94017 15.9084C6.94 15.9084 6.16326 16.1317 5.60998 16.5784C5.07798 17.0039 4.81198 17.5356 4.81198 18.1738C4.81198 18.8119 5.06735 19.3224 5.57807 19.7053C6.11007 20.0882 6.71656 20.2797 7.39752 20.2797C7.9508 20.2797 8.46152 20.1839 8.92969 19.9925C11.0806 18.7975 12.1406 16.9542 9.63193 16.1317V16.1317Z" fill="#2ECC71"/>
</mask>
<g mask="url(#mask0)">
<rect x="-2.95081" y="-7.17444" width="148" height="46" fill="url(#paint0_linear)"/>
</g>
<defs>
<linearGradient id="paint0_linear" x1="-2.95081" y1="15.8256" x2="138.049" y2="15.8256" gradientUnits="userSpaceOnUse">
<stop stop-color="#2ECC71"/>
<stop offset="1" stop-color="#2191FB"/>
</linearGradient>
</defs>
</svg>
